<svg xmlns="http://www.w3.org/2000/svg" width="256" height="256" viewBox="0 0 256 256"><path d="M128 2l109.1 63v126L128 254 18.9 191V65L128 2z"/><path fill="#fff" d="M64.7 174.6a2.1 2.1 0 0 1 0-4.2H75v-13H64.7a1.9 1.9 0 0 1-2.1-2.1v-40.8a1.9 1.9 0 0 1 2.1-2h13.6c1.1-29.4 23-45.6 49.7-45.6s48.6 16.2 49.7 45.6h13.6a1.9 1.9 0 0 1 2.1 2v40.8a1.9 1.9 0 0 1-2.1 2.1H181v13h10.3a2.1 2.1 0 0 1 0 4.2zm2-58v36.6h122.6v-36.6zm12.5 40.8v13h13.2v-13zm3.3-44.9h91c-1-26.7-21.3-41.4-45.5-41.4s-44.5 14.7-45.5 41.4zm14 44.9v13h20.7v-13zm24.9 0v13h13.2v-13zm56.1-14.1H127a2.1 2.1 0 1 1 0-4.1h50.5a2.1 2.1 0 0 1 0 4.1zm-38.7 14.1v13h20.7v-13zm24.8 0v13h13.2v-13z"/></svg>