<svg xmlns="http://www.w3.org/2000/svg" width="256" height="256" viewBox="0 0 256 256"><path d="M127 2l109.1 63v126L127 254 17.9 191V65L127 2z"/><path fill="#fff" d="M67.2 174.6a2 2 0 0 1-2.1-2.1v-25.1H37.8a2.1 2.1 0 1 1 0-4.1h15.5v-13.4a2 2 0 0 1 2.1-2.1h8.1a65.6 65.6 0 0 1 63.3-50.3c.2-.2.4-.2.8 0a65.3 65.3 0 0 1 62.9 50.3h8.1a2 2 0 0 1 2.1 2.1v13.4h15.5a2.1 2.1 0 1 1 0 4.1h-27.3v25.1a2.1 2.1 0 0 1-2.1 2.1zm-9.7-42.7v11.4h139v-11.4zm65.4-50.1c-26.5 1.7-48.7 20.9-55.1 46H90zm-53.6 65.6v23h55.6v-23zM124.9 86l-29.8 41.8h29.8zm4.2-4.4v46.2h57.1a61.6 61.6 0 0 0-57.1-46.2zm0 65.8v23h9.3v-23zm13.4 0v23h42.2v-23z"/></svg>